<?xml version="1.0" encoding="UTF-8" standalone="no"?>
<svg
   xmlns:dc="http://purl.org/dc/elements/1.1/"
   xmlns:cc="http://creativecommons.org/ns#"
   xmlns:rdf="http://www.w3.org/1999/02/22-rdf-syntax-ns#"
   xmlns:svg="http://www.w3.org/2000/svg"
   xmlns="http://www.w3.org/2000/svg"
   viewBox="0 0 1014.92 460.62668"
   height="460.62668"
   width="1014.92"
   xml:space="preserve"
   id="svg2"
   version="1.1"><metadata
     id="metadata8"><rdf:RDF><cc:Work
         rdf:about=""><dc:format>image/svg+xml</dc:format><dc:type
           rdf:resource="http://purl.org/dc/dcmitype/StillImage" /></cc:Work></rdf:RDF></metadata><defs
     id="defs6" /><g
     transform="matrix(1.3333333,0,0,-1.3333333,0,460.62667)"
     id="g10"><g
       transform="scale(0.1)"
       id="g12"><path
         id="path14"
         style="fill:#6c86cc;fill-opacity:1;fill-rule:nonzero;stroke:none"
         d="m 1788.1,2102.32 c -54.8,0 -104.4,22.5 -140,58.8 l -329,-189.9 V 912.418 l -123.2,62.902 v 1066.9 l 397.8,229.7 c -1.3,8.8 -1.9,17.7 -1.9,26.8 0,108.4 87.9,196.3 196.3,196.3 108.4,0 196.3,-87.9 196.3,-196.3 0,-108.5 -87.9,-196.4 -196.3,-196.4 z m 777.6,-43.8 c -37,101.7 -228.8,281 -228.8,432.6 0,151.6 75.8,270.7 -66.8,543.2 -142.6,272.5 -510.7,420.4 -786.8,420.4 -276.1,0 -669.402,-34.3 -986.999,-431.2 -317.602,-397 -198.5,-857.2 -222,-1100.8 C 250.898,1679.12 0,1385.02 0,1385.02 c 0,0 299.602,-176.9 537.801,-176.9 238.199,0 332.898,79.3 332.898,79.3 v 980.4 l 352.801,352.9 c -15.34,29.28 -23.45,62.88 -22.04,98.52 4.11,104.59 92.68,189.01 197.35,188.38 114.66,-0.69 206.04,-99.74 194.03,-217.01 -9.29,-90.65 -82.09,-164.23 -172.65,-174.32 -39.15,-4.37 -76.24,2.76 -108.39,18.53 l -317.902,-317.9 v -871.9 c 0,-131.23 -70.707,-252.97 -135.23,-340 C 785.891,906.871 614.5,695.621 614.5,695.621 c 0,0 9.898,-1.801 266.102,-61.301 256.298,-59.601 353.698,-151.601 671.298,-292.3 317.6,-140.801 461.7,-149.602 461.7,-149.602 0,0 -314,438.5 -314,639.5 0,201.002 42,372.802 148.9,415.502 106.9,42.6 301.1,-40.6 386.4,-14.9 85.3,25.7 139.1,99.5 146.9,144.8 7.7,45.3 -17.3,127.5 -17,159.7 0.4,32.1 49.8,50.4 49.8,83.2 0,26.76 -35.8,72.94 -48.99,89.05 -2.59,3.17 -2.01,7.81 1.27,10.26 16.87,12.57 64.84,47.1 73.42,60.09 13.1,19.84 -6.8,52 -15.6,80.1 -5.17,16.46 -4.68,35.97 -3.39,49.24 0.91,9.38 6.45,17.6 14.79,21.98 37.75,19.84 146.33,81.6 129.6,127.58" /><path
         id="path16"
         style="fill:#6c86cc;fill-opacity:1;fill-rule:nonzero;stroke:none"
         d="m 1470.25,2712.18 c 0,-40.4 -32.7,-73.1 -73.1,-73.1 -40.3,0 -73.1,32.7 -73.1,73.1 0,40.3 32.8,73.1 73.1,73.1 40.4,0 73.1,-32.8 73.1,-73.1" /><path
         id="path18"
         style="fill:#6c86cc;fill-opacity:1;fill-rule:nonzero;stroke:none"
         d="m 1861.63,2298.79 c 0,-40.4 -32.7,-73.1 -73.1,-73.1 -40.4,0 -73.1,32.7 -73.1,73.1 0,40.3 32.7,73 73.1,73 40.4,0 73.1,-32.7 73.1,-73" /><path
         id="path20"
         style="fill:#28292a;fill-opacity:1;fill-rule:nonzero;stroke:none"
         d="m 3084.67,2416.13 79.84,151.04 c 44.57,-26.83 83.57,-45.09 117,-54.78 33.42,-9.71 68.49,-14.55 105.22,-14.55 47.45,0 83.05,9.39 106.78,28.16 23.73,18.79 35.59,44.89 35.59,78.3 0,30.96 -9.5,55 -28.47,72.13 -18.99,17.11 -53.45,31.66 -103.37,43.63 -98.21,23.1 -169.6,55.4 -214.17,96.87 -44.57,41.48 -66.86,99.14 -66.86,173.01 0,74.69 28.79,138.13 86.35,190.34 57.57,52.2 138.35,78.3 242.34,78.3 43.33,0 85.93,-4.95 127.83,-14.85 41.87,-9.9 82.01,-24.56 120.39,-43.94 l -73.67,-152.28 c -33.83,18.97 -65.91,32.69 -96.25,41.16 -30.33,8.46 -58.71,12.69 -85.11,12.69 -40.85,0 -72.73,-8.15 -95.64,-24.45 -22.9,-16.3 -34.34,-39.72 -34.34,-70.25 0,-27.66 10.41,-48.91 31.26,-63.76 20.83,-14.85 58.28,-28.89 112.34,-42.09 95.32,-22.29 164.24,-55 206.74,-98.11 42.5,-43.13 63.76,-103.69 63.76,-181.68 0,-83.36 -29.31,-150.93 -87.9,-202.72 -58.6,-51.79 -143.4,-77.69 -254.41,-77.69 -49.93,0 -101.2,6.62 -153.81,19.82 -52.62,13.2 -99.77,31.77 -141.44,55.7" /><path
         id="path22"
         style="fill:#28292a;fill-opacity:1;fill-rule:nonzero;stroke:none"
         d="m 4473.07,2356.09 h -188.8 v 369.54 c 0,50.35 -9.08,87.89 -27.24,112.66 -18.16,24.76 -45.59,37.14 -82.32,37.14 -37.14,0 -67.47,-13.93 -90.99,-41.79 -23.52,-27.85 -35.28,-63.65 -35.28,-107.39 v -370.16 h -189.41 v 938.4 h 189.41 v -386.87 h 2.47 c 24.35,38.38 53.33,66.94 86.97,85.73 33.63,18.77 71.69,28.16 114.2,28.16 73.87,0 129.16,-22.28 165.89,-66.85 36.73,-44.56 55.1,-111.21 55.1,-199.93 v -398.64" /><path
         id="path24"
         style="fill:#28292a;fill-opacity:1;fill-rule:nonzero;stroke:none"
         d="m 5043.78,2746.68 c 0,51.16 -10.12,88.2 -30.33,111.1 -20.23,22.91 -49.94,34.36 -89.14,34.36 -34.26,0 -63.65,-13.11 -88.2,-39.31 -24.56,-26.21 -39.53,-61.58 -44.88,-106.15 z m 175.79,-118.85 h -427.72 c 3.3,-49.93 19.59,-87.38 48.89,-112.34 29.3,-24.98 69.74,-37.45 121.33,-37.45 18.98,0 44.88,5.46 77.69,16.4 32.8,10.93 64.88,28.17 96.25,51.68 l 82.32,-110.17 c -44.16,-33.03 -89.13,-57.26 -134.94,-72.74 -45.8,-15.48 -96.36,-23.21 -151.65,-23.21 -103.58,0 -184.05,29.09 -241.41,87.27 -57.36,58.19 -86.04,139.49 -86.04,243.89 0,104 30.33,188.38 91,253.16 60.66,64.79 137.41,97.19 230.26,97.19 89.96,0 161.45,-27.23 214.48,-81.71 53.02,-54.47 79.54,-132.88 79.54,-235.21 v -76.76" /><path
         id="path26"
         style="fill:#28292a;fill-opacity:1;fill-rule:nonzero;stroke:none"
         d="m 3084.67,1246.13 79.84,151.04 c 44.57,-26.83 83.57,-45.09 117,-54.78 33.42,-9.71 68.49,-14.55 105.22,-14.55 47.45,0 83.05,9.39 106.78,28.16 23.73,18.78 35.59,44.89 35.59,78.31 0,30.95 -9.5,54.99 -28.47,72.11 -18.99,17.12 -53.45,31.66 -103.37,43.64 -98.21,23.1 -169.6,55.4 -214.17,96.87 -44.57,41.48 -66.86,99.14 -66.86,173.01 0,74.69 28.79,138.13 86.35,190.34 57.57,52.2 138.35,78.3 242.34,78.3 43.33,0 85.93,-4.95 127.83,-14.85 41.87,-9.9 82.01,-24.56 120.39,-43.95 l -73.67,-152.27 c -33.83,18.97 -65.91,32.69 -96.25,41.16 -30.33,8.46 -58.71,12.69 -85.11,12.69 -40.85,0 -72.73,-8.15 -95.64,-24.45 -22.9,-16.31 -34.34,-39.72 -34.34,-70.25 0,-27.66 10.41,-48.91 31.26,-63.76 20.83,-14.85 58.28,-28.89 112.34,-42.09 95.32,-22.29 164.24,-55 206.74,-98.12 42.5,-43.12 63.76,-103.68 63.76,-181.67 0,-83.36 -29.31,-150.93 -87.9,-202.72 -58.6,-51.79 -143.4,-77.69 -254.41,-77.69 -49.93,0 -101.2,6.62 -153.81,19.82 -52.62,13.2 -99.77,31.77 -141.44,55.7" /><path
         id="path28"
         style="fill:#28292a;fill-opacity:1;fill-rule:nonzero;stroke:none"
         d="m 4473.07,1186.09 h -188.8 v 369.54 c 0,50.35 -9.08,87.89 -27.24,112.66 -18.16,24.76 -45.59,37.14 -82.32,37.14 -37.14,0 -67.47,-13.93 -90.99,-41.79 -23.52,-27.85 -35.28,-63.65 -35.28,-107.39 v -370.16 h -189.41 v 938.4 h 189.41 v -386.87 h 2.47 c 24.35,38.37 53.33,66.94 86.97,85.73 33.63,18.77 71.69,28.16 114.2,28.16 73.87,0 129.16,-22.28 165.89,-66.85 36.73,-44.56 55.1,-111.21 55.1,-199.93 v -398.64" /><path
         id="path30"
         style="fill:#28292a;fill-opacity:1;fill-rule:nonzero;stroke:none"
         d="m 4996.73,1450.4 v 45.81 l -123.17,-16.09 c -34.67,-4.55 -60.46,-14.55 -77.38,-30.02 -16.93,-15.48 -25.38,-36.21 -25.38,-62.22 0,-23.94 8.25,-43.54 24.76,-58.8 16.5,-15.27 38.79,-22.9 66.85,-22.9 39.61,0 71.9,13.51 96.88,40.54 24.96,27.03 37.44,61.59 37.44,103.68 z M 5175,1186.09 h -180.12 v 94.09 h -2.48 c -21.46,-36.31 -48.49,-63.76 -81.09,-82.33 -32.6,-18.56 -69.54,-27.85 -110.8,-27.85 -57.77,0 -106.46,17.33 -146.07,51.99 -39.62,34.67 -59.43,82.53 -59.43,143.61 0,60.66 19.7,109.77 59.11,147.32 39.41,37.55 100.59,61.9 183.53,73.05 l 159.08,21.66 v 12.38 c 0,33.43 -10.31,58.59 -30.95,75.52 -20.63,16.91 -49.11,25.38 -85.42,25.38 -27.23,0 -56.94,-4.65 -89.13,-13.94 -32.18,-9.28 -64.59,-24.04 -97.18,-44.26 l -66.85,112.04 c 42.49,26 85.52,45.29 129.05,57.89 43.54,12.57 90.69,18.87 141.45,18.87 94.08,0 163.82,-22.7 209.22,-68.09 45.39,-45.39 68.08,-113.69 68.08,-204.89 v -392.44" /><path
         id="path32"
         style="fill:#28292a;fill-opacity:1;fill-rule:nonzero;stroke:none"
         d="m 5530.93,1529.64 v -56.33 c 0,-45.81 12.47,-83.47 37.44,-112.97 24.97,-29.51 57.67,-44.26 98.12,-44.26 47.45,0 84.38,18.36 110.8,55.09 26.4,36.73 39.62,88.72 39.62,155.99 0,59 -11.67,103.46 -34.98,133.4 -23.32,29.91 -57.88,44.87 -103.69,44.87 -43.74,0 -79.22,-16.1 -106.46,-48.28 -27.24,-32.19 -40.85,-74.7 -40.85,-127.51 z m 5.57,-265.56 h -2.47 V 894.551 h -189.42 v 940.869 h 189.42 v -99.66 h 2.47 c 24.76,38.78 54.78,67.77 90.06,86.96 35.29,19.19 75.41,28.79 120.39,28.79 84.18,0 149.28,-28.89 195.3,-86.66 46,-57.78 69.01,-136.39 69.01,-235.84 0,-108.11 -26.82,-194.98 -80.47,-260.59 -53.64,-65.62 -124.83,-98.42 -213.54,-98.42 -39.62,0 -74.4,7.84 -104.31,23.52 -29.92,15.68 -55.4,39.2 -76.44,70.56" /><path
         id="path34"
         style="fill:#28292a;fill-opacity:1;fill-rule:nonzero;stroke:none"
         d="m 6554.13,1576.68 c 0,51.16 -10.11,88.2 -30.33,111.1 -20.22,22.91 -49.94,34.36 -89.14,34.36 -34.26,0 -63.65,-13.11 -88.2,-39.31 -24.56,-26.21 -39.52,-61.58 -44.88,-106.15 z m 175.79,-118.85 H 6302.2 c 3.3,-49.93 19.59,-87.38 48.9,-112.34 29.29,-24.98 69.73,-37.45 121.32,-37.45 18.98,0 44.88,5.45 77.69,16.4 32.8,10.93 64.88,28.17 96.25,51.68 l 82.32,-110.17 c -44.16,-33.03 -89.13,-57.26 -134.94,-72.74 -45.8,-15.48 -96.36,-23.21 -151.65,-23.21 -103.58,0 -184.05,29.09 -241.4,87.27 -57.37,58.19 -86.05,139.49 -86.05,243.89 0,104 30.33,188.38 91,253.16 60.66,64.79 137.41,97.19 230.26,97.19 89.96,0 161.46,-27.23 214.48,-81.71 53.02,-54.47 79.54,-132.88 79.54,-235.21 v -76.76" /><path
         id="path36"
         style="fill:#28292a;fill-opacity:1;fill-rule:nonzero;stroke:none"
         d="m 6799.87,1240.57 78.61,126.89 c 22.27,-16.92 48.17,-31.26 77.67,-43.02 29.51,-11.77 62.62,-17.64 99.36,-17.64 27.64,0 50.23,5.04 67.77,15.16 17.54,10.11 26.31,25.48 26.31,46.11 0,16.51 -6.8,29.61 -20.43,39.31 -13.61,9.69 -38.79,18.67 -75.51,26.93 -80.47,17.33 -138.25,41.57 -173.32,72.73 -35.07,31.15 -52.61,74.59 -52.61,130.3 0,65.2 25.89,117.19 77.68,155.99 51.78,38.78 115.44,58.18 190.96,58.18 38.79,0 75.61,-5.06 110.49,-15.16 34.87,-10.12 67.57,-25.07 98.11,-44.89 l -71.18,-122.55 c -26.41,16.5 -51.07,28.57 -73.97,36.21 -22.9,7.63 -46.54,11.45 -70.88,11.45 -28.07,0 -50.55,-5.37 -67.46,-16.09 -16.94,-10.74 -25.38,-24.56 -25.38,-41.48 0,-18.56 7.73,-32.29 23.21,-41.16 15.47,-8.88 45.08,-17.85 88.82,-26.92 74.68,-15.7 128.44,-39.52 161.25,-71.5 32.81,-31.98 49.21,-75.62 49.21,-130.92 0,-65.61 -24.76,-118.34 -74.28,-158.15 -49.52,-39.82 -114.93,-59.74 -196.22,-59.74 -44.98,0 -87.7,5.69 -128.14,17.03 -40.44,11.34 -80.47,28.99 -120.07,52.93" /><path
         id="path38"
         style="fill:#28292a;fill-opacity:1;fill-rule:nonzero;stroke:none"
         d="M 3673.95,832.551 H 3417.06 V 16.0898 h -77.37 V 832.551 h -256.26 v 71.179 h 590.52 v -71.179" /><path
         id="path40"
         style="fill:#28292a;fill-opacity:1;fill-rule:nonzero;stroke:none"
         d="m 4124.58,395.539 c -1.66,69.731 -18.47,123.891 -50.45,162.492 -31.98,38.571 -75.83,57.867 -131.53,57.867 -56.95,0 -104.31,-19.296 -142.06,-57.867 -37.76,-38.601 -60.98,-92.761 -69.64,-162.492 z m 76.75,-64.379 h -472.91 c 1.24,-89.969 22.38,-156.601 63.45,-199.93 41.06,-43.3316 95.84,-64.9995 164.34,-64.9995 31.77,0 63.03,5.0508 93.78,15.1679 30.73,10.1016 61.59,26.5116 92.54,49.2036 l 37.76,-53.8403 C 4144.39,50.3398 4107.86,30.9492 4070.72,18.5703 4033.59,6.19141 3992.52,0 3947.55,0 c -87.08,0 -158.15,28.0586 -213.24,84.1797 -55.1,56.1213 -82.64,141.5393 -82.64,256.2693 -0.42,99.031 26.61,180.629 81.09,244.801 54.47,64.168 125.24,96.258 212.31,96.258 82.12,0 145.36,-28.059 189.73,-84.188 44.35,-56.121 66.53,-133.07 66.53,-230.879 V 331.16" /><path
         id="path42"
         style="fill:#28292a;fill-opacity:1;fill-rule:nonzero;stroke:none"
         d="M 4814.13,53.8516 C 4783.6,34.8594 4753.37,21.1406 4723.45,12.6797 4693.53,4.23828 4661.45,0 4627.2,0 c -89.55,0 -162.18,29.6094 -217.88,88.8281 -55.71,59.2109 -83.57,138.9609 -83.57,239.2419 0,104.391 30.02,189.41 90.06,255.02 60.04,65.609 138.75,98.418 236.15,98.418 28.47,0 56.23,-3.309 83.26,-9.899 27.02,-6.609 54.57,-17.328 82.63,-32.191 L 4786.9,581.23 c -23.12,12.379 -45.71,21.141 -67.78,26.309 -22.08,5.152 -45.71,7.742 -70.88,7.742 -75.51,0 -135.24,-26.101 -179.19,-78.312 -43.95,-52.207 -65.92,-119.571 -65.92,-202.098 0,-83.363 21.04,-148.871 63.13,-196.519 42.09,-47.6723 97.38,-71.5004 165.89,-71.5004 25.17,0 49.73,3.2968 73.66,9.9101 23.93,6.5899 48.69,17.9492 74.28,34.0393 l 34.04,-56.9494" /><path
         id="path44"
         style="fill:#28292a;fill-opacity:1;fill-rule:nonzero;stroke:none"
         d="m 5483.26,16.0898 h -74.9 V 399.871 c 0,73.859 -13.31,128.328 -39.92,163.41 -26.62,35.071 -68.19,52.617 -124.73,52.617 -53.65,0 -100.27,-20.949 -139.89,-62.828 -39.62,-41.89 -59.42,-99.968 -59.42,-174.242 V 16.0898 h -74.91 V 954.488 h 74.91 V 552.141 h 2.47 c 25.16,43.328 56.02,75.718 92.55,97.187 36.51,21.442 78.7,32.18 126.58,32.18 71.79,0 125.96,-22.5 162.48,-67.469 36.52,-44.98 54.78,-110.391 54.78,-196.219 V 16.0898" /></g></g></svg>